<mxfile host="app.diagrams.net" modified="2024-04-10T23:02:47.873Z" agent="Mozilla/5.0 (Windows NT 10.0; Win64; x64) AppleWebKit/537.36 (KHTML, like Gecko) Chrome/123.0.0.0 Safari/537.36" etag="fHLK7L5Ii0WXGHghpzNr" version="24.2.3" type="device">
  <diagram name="PÃ¡gina-1" id="G0LXMrM-pf_MngDq6KLR">
    <mxGraphModel dx="993" dy="568" grid="1" gridSize="10" guides="1" tooltips="1" connect="1" arrows="1" fold="1" page="1" pageScale="1" pageWidth="827" pageHeight="1169" math="0" shadow="0">
      <root>
        <mxCell id="0" />
        <mxCell id="1" parent="0" />
        <mxCell id="QOWtBBJz_S1lkX0lXb_E-4" style="edgeStyle=orthogonalEdgeStyle;rounded=0;orthogonalLoop=1;jettySize=auto;html=1;entryX=0.5;entryY=0;entryDx=0;entryDy=0;" edge="1" parent="1" source="QOWtBBJz_S1lkX0lXb_E-1" target="QOWtBBJz_S1lkX0lXb_E-2">
          <mxGeometry relative="1" as="geometry" />
        </mxCell>
        <mxCell id="QOWtBBJz_S1lkX0lXb_E-5" style="edgeStyle=orthogonalEdgeStyle;rounded=0;orthogonalLoop=1;jettySize=auto;html=1;entryX=0.5;entryY=0;entryDx=0;entryDy=0;" edge="1" parent="1" source="QOWtBBJz_S1lkX0lXb_E-1" target="QOWtBBJz_S1lkX0lXb_E-3">
          <mxGeometry relative="1" as="geometry" />
        </mxCell>
        <mxCell id="QOWtBBJz_S1lkX0lXb_E-1" value="index.php" style="rounded=1;whiteSpace=wrap;html=1;" vertex="1" parent="1">
          <mxGeometry x="280" y="120" width="120" height="60" as="geometry" />
        </mxCell>
        <mxCell id="QOWtBBJz_S1lkX0lXb_E-7" style="edgeStyle=orthogonalEdgeStyle;rounded=0;orthogonalLoop=1;jettySize=auto;html=1;" edge="1" parent="1" source="QOWtBBJz_S1lkX0lXb_E-2" target="QOWtBBJz_S1lkX0lXb_E-6">
          <mxGeometry relative="1" as="geometry" />
        </mxCell>
        <mxCell id="QOWtBBJz_S1lkX0lXb_E-2" value="cadastro.php" style="rounded=1;whiteSpace=wrap;html=1;" vertex="1" parent="1">
          <mxGeometry x="200" y="220" width="120" height="60" as="geometry" />
        </mxCell>
        <mxCell id="QOWtBBJz_S1lkX0lXb_E-16" style="edgeStyle=orthogonalEdgeStyle;rounded=0;orthogonalLoop=1;jettySize=auto;html=1;" edge="1" parent="1" source="QOWtBBJz_S1lkX0lXb_E-3" target="QOWtBBJz_S1lkX0lXb_E-15">
          <mxGeometry relative="1" as="geometry" />
        </mxCell>
        <mxCell id="QOWtBBJz_S1lkX0lXb_E-18" style="edgeStyle=orthogonalEdgeStyle;rounded=0;orthogonalLoop=1;jettySize=auto;html=1;" edge="1" parent="1" source="QOWtBBJz_S1lkX0lXb_E-3" target="QOWtBBJz_S1lkX0lXb_E-14">
          <mxGeometry relative="1" as="geometry" />
        </mxCell>
        <mxCell id="QOWtBBJz_S1lkX0lXb_E-3" value="lista.php" style="rounded=1;whiteSpace=wrap;html=1;" vertex="1" parent="1">
          <mxGeometry x="380" y="330" width="120" height="60" as="geometry" />
        </mxCell>
        <mxCell id="QOWtBBJz_S1lkX0lXb_E-10" style="edgeStyle=orthogonalEdgeStyle;rounded=0;orthogonalLoop=1;jettySize=auto;html=1;" edge="1" parent="1" source="QOWtBBJz_S1lkX0lXb_E-6" target="QOWtBBJz_S1lkX0lXb_E-3">
          <mxGeometry relative="1" as="geometry" />
        </mxCell>
        <mxCell id="QOWtBBJz_S1lkX0lXb_E-6" value="grava.php" style="rounded=1;whiteSpace=wrap;html=1;" vertex="1" parent="1">
          <mxGeometry x="200" y="330" width="120" height="60" as="geometry" />
        </mxCell>
        <mxCell id="QOWtBBJz_S1lkX0lXb_E-8" value="conecta.php" style="rounded=1;whiteSpace=wrap;html=1;" vertex="1" parent="1">
          <mxGeometry x="40" y="330" width="120" height="60" as="geometry" />
        </mxCell>
        <mxCell id="QOWtBBJz_S1lkX0lXb_E-9" value="" style="endArrow=none;dashed=1;html=1;rounded=0;entryX=0;entryY=0.5;entryDx=0;entryDy=0;" edge="1" parent="1" source="QOWtBBJz_S1lkX0lXb_E-8" target="QOWtBBJz_S1lkX0lXb_E-6">
          <mxGeometry width="50" height="50" relative="1" as="geometry">
            <mxPoint x="440" y="380" as="sourcePoint" />
            <mxPoint x="490" y="330" as="targetPoint" />
          </mxGeometry>
        </mxCell>
        <mxCell id="QOWtBBJz_S1lkX0lXb_E-11" value="conecta.php" style="rounded=1;whiteSpace=wrap;html=1;" vertex="1" parent="1">
          <mxGeometry x="550" y="330" width="120" height="60" as="geometry" />
        </mxCell>
        <mxCell id="QOWtBBJz_S1lkX0lXb_E-12" value="" style="endArrow=none;dashed=1;html=1;rounded=0;exitX=1;exitY=0.5;exitDx=0;exitDy=0;" edge="1" parent="1" source="QOWtBBJz_S1lkX0lXb_E-3" target="QOWtBBJz_S1lkX0lXb_E-11">
          <mxGeometry width="50" height="50" relative="1" as="geometry">
            <mxPoint x="170" y="370" as="sourcePoint" />
            <mxPoint x="210" y="370" as="targetPoint" />
          </mxGeometry>
        </mxCell>
        <mxCell id="QOWtBBJz_S1lkX0lXb_E-14" value="editar.php" style="rounded=1;whiteSpace=wrap;html=1;" vertex="1" parent="1">
          <mxGeometry x="294" y="460" width="120" height="60" as="geometry" />
        </mxCell>
        <mxCell id="QOWtBBJz_S1lkX0lXb_E-15" value="excluir.php" style="rounded=1;whiteSpace=wrap;html=1;" vertex="1" parent="1">
          <mxGeometry x="460" y="460" width="120" height="60" as="geometry" />
        </mxCell>
      </root>
    </mxGraphModel>
  </diagram>
</mxfile>
